<mxfile host="app.diagrams.net" modified="2020-08-14T12:07:42.466Z" agent="5.0 (Windows)" etag="dIUPs-7HPvYG-Tae-RIW" version="13.6.2" type="github">
  <diagram id="y-MZYcMi16r6H4DawcYB" name="Page-1">
    <mxGraphModel dx="868" dy="429" grid="0" gridSize="10" guides="1" tooltips="1" connect="1" arrows="1" fold="1" page="1" pageScale="1" pageWidth="1600" pageHeight="1200" math="0" shadow="0">
      <root>
        <mxCell id="0" />
        <mxCell id="1" parent="0" />
        <mxCell id="olQ-_vG1MbKa7JkdZpwq-19" value="" style="ellipse;shape=cloud;whiteSpace=wrap;html=1;" vertex="1" parent="1">
          <mxGeometry x="243" y="183" width="756" height="709" as="geometry" />
        </mxCell>
        <mxCell id="olQ-_vG1MbKa7JkdZpwq-1" value="Found Organization " style="rounded=0;whiteSpace=wrap;html=1;" vertex="1" parent="1">
          <mxGeometry x="406" y="516" width="120" height="60" as="geometry" />
        </mxCell>
        <mxCell id="olQ-_vG1MbKa7JkdZpwq-5" value="Dealer1" style="rounded=0;whiteSpace=wrap;html=1;" vertex="1" parent="1">
          <mxGeometry x="763" y="386" width="120" height="60" as="geometry" />
        </mxCell>
        <mxCell id="olQ-_vG1MbKa7JkdZpwq-8" value="Dealer2" style="rounded=0;whiteSpace=wrap;html=1;" vertex="1" parent="1">
          <mxGeometry x="763" y="492" width="120" height="60" as="geometry" />
        </mxCell>
        <mxCell id="olQ-_vG1MbKa7JkdZpwq-9" value="Dealer3" style="rounded=0;whiteSpace=wrap;html=1;" vertex="1" parent="1">
          <mxGeometry x="767" y="588" width="120" height="60" as="geometry" />
        </mxCell>
        <mxCell id="olQ-_vG1MbKa7JkdZpwq-10" value="Dealer4" style="rounded=0;whiteSpace=wrap;html=1;" vertex="1" parent="1">
          <mxGeometry x="767" y="686" width="120" height="60" as="geometry" />
        </mxCell>
        <mxCell id="olQ-_vG1MbKa7JkdZpwq-11" value="Peer1" style="ellipse;whiteSpace=wrap;html=1;" vertex="1" parent="1">
          <mxGeometry x="339" y="543" width="52" height="43" as="geometry" />
        </mxCell>
        <mxCell id="olQ-_vG1MbKa7JkdZpwq-12" value="Peer2" style="ellipse;whiteSpace=wrap;html=1;" vertex="1" parent="1">
          <mxGeometry x="380" y="590" width="52" height="43" as="geometry" />
        </mxCell>
        <mxCell id="olQ-_vG1MbKa7JkdZpwq-20" value="Channel" style="shape=step;perimeter=stepPerimeter;whiteSpace=wrap;html=1;fixedSize=1;rotation=-25;" vertex="1" parent="1">
          <mxGeometry x="500.97" y="426.6" width="271.5" height="38" as="geometry" />
        </mxCell>
        <mxCell id="olQ-_vG1MbKa7JkdZpwq-21" value="Channel" style="shape=step;perimeter=stepPerimeter;whiteSpace=wrap;html=1;fixedSize=1;rotation=0;" vertex="1" parent="1">
          <mxGeometry x="517" y="522" width="271.5" height="38" as="geometry" />
        </mxCell>
        <mxCell id="olQ-_vG1MbKa7JkdZpwq-22" value="Channel" style="shape=step;perimeter=stepPerimeter;whiteSpace=wrap;html=1;fixedSize=1;rotation=15;" vertex="1" parent="1">
          <mxGeometry x="514" y="569" width="271.5" height="38" as="geometry" />
        </mxCell>
        <mxCell id="olQ-_vG1MbKa7JkdZpwq-23" value="Channel" style="shape=step;perimeter=stepPerimeter;whiteSpace=wrap;html=1;fixedSize=1;rotation=30;" vertex="1" parent="1">
          <mxGeometry x="491.5" y="640" width="271.5" height="38" as="geometry" />
        </mxCell>
        <mxCell id="olQ-_vG1MbKa7JkdZpwq-26" value="" style="verticalLabelPosition=bottom;verticalAlign=top;html=1;shape=mxgraph.flowchart.or;" vertex="1" parent="1">
          <mxGeometry x="915" y="382" width="8" height="17" as="geometry" />
        </mxCell>
        <mxCell id="olQ-_vG1MbKa7JkdZpwq-27" value="" style="verticalLabelPosition=bottom;verticalAlign=top;html=1;shape=mxgraph.flowchart.or;" vertex="1" parent="1">
          <mxGeometry x="912" y="505" width="8" height="17" as="geometry" />
        </mxCell>
        <mxCell id="olQ-_vG1MbKa7JkdZpwq-28" value="" style="verticalLabelPosition=bottom;verticalAlign=top;html=1;shape=mxgraph.flowchart.or;" vertex="1" parent="1">
          <mxGeometry x="915" y="704" width="8" height="17" as="geometry" />
        </mxCell>
        <mxCell id="olQ-_vG1MbKa7JkdZpwq-29" value="" style="verticalLabelPosition=bottom;verticalAlign=top;html=1;shape=mxgraph.flowchart.or;" vertex="1" parent="1">
          <mxGeometry x="912" y="613" width="8" height="17" as="geometry" />
        </mxCell>
        <mxCell id="olQ-_vG1MbKa7JkdZpwq-30" value="" style="verticalLabelPosition=bottom;verticalAlign=top;html=1;shape=mxgraph.flowchart.or;" vertex="1" parent="1">
          <mxGeometry x="488" y="492" width="8" height="17" as="geometry" />
        </mxCell>
        <mxCell id="olQ-_vG1MbKa7JkdZpwq-31" value="" style="verticalLabelPosition=bottom;verticalAlign=top;html=1;shape=mxgraph.flowchart.or;" vertex="1" parent="1">
          <mxGeometry x="496" y="516" width="8" height="17" as="geometry" />
        </mxCell>
        <mxCell id="olQ-_vG1MbKa7JkdZpwq-32" value="" style="verticalLabelPosition=bottom;verticalAlign=top;html=1;shape=mxgraph.flowchart.or;" vertex="1" parent="1">
          <mxGeometry x="500.97" y="559" width="8" height="17" as="geometry" />
        </mxCell>
        <mxCell id="olQ-_vG1MbKa7JkdZpwq-33" value="" style="verticalLabelPosition=bottom;verticalAlign=top;html=1;shape=mxgraph.flowchart.or;" vertex="1" parent="1">
          <mxGeometry x="496" y="583" width="8" height="17" as="geometry" />
        </mxCell>
        <mxCell id="olQ-_vG1MbKa7JkdZpwq-34" value="" style="strokeWidth=2;html=1;shape=mxgraph.flowchart.decision;whiteSpace=wrap;" vertex="1" parent="1">
          <mxGeometry x="400" y="462" width="43" height="30" as="geometry" />
        </mxCell>
        <mxCell id="olQ-_vG1MbKa7JkdZpwq-36" value="" style="strokeWidth=2;html=1;shape=mxgraph.flowchart.decision;whiteSpace=wrap;" vertex="1" parent="1">
          <mxGeometry x="887" y="406" width="43" height="30" as="geometry" />
        </mxCell>
        <mxCell id="olQ-_vG1MbKa7JkdZpwq-37" value="" style="strokeWidth=2;html=1;shape=mxgraph.flowchart.decision;whiteSpace=wrap;" vertex="1" parent="1">
          <mxGeometry x="897.5" y="530" width="43" height="30" as="geometry" />
        </mxCell>
        <mxCell id="olQ-_vG1MbKa7JkdZpwq-38" value="" style="strokeWidth=2;html=1;shape=mxgraph.flowchart.decision;whiteSpace=wrap;" vertex="1" parent="1">
          <mxGeometry x="907" y="627" width="43" height="30" as="geometry" />
        </mxCell>
        <mxCell id="olQ-_vG1MbKa7JkdZpwq-39" value="" style="strokeWidth=2;html=1;shape=mxgraph.flowchart.decision;whiteSpace=wrap;" vertex="1" parent="1">
          <mxGeometry x="903" y="725" width="43" height="30" as="geometry" />
        </mxCell>
        <mxCell id="olQ-_vG1MbKa7JkdZpwq-40" value="" style="shape=internalStorage;whiteSpace=wrap;html=1;dx=15;dy=15;rounded=1;arcSize=8;strokeWidth=2;" vertex="1" parent="1">
          <mxGeometry x="596" y="382" width="41" height="30" as="geometry" />
        </mxCell>
        <mxCell id="olQ-_vG1MbKa7JkdZpwq-42" value="" style="shape=internalStorage;whiteSpace=wrap;html=1;dx=15;dy=15;rounded=1;arcSize=8;strokeWidth=2;" vertex="1" parent="1">
          <mxGeometry x="640" y="492" width="41" height="30" as="geometry" />
        </mxCell>
        <mxCell id="olQ-_vG1MbKa7JkdZpwq-43" value="" style="shape=internalStorage;whiteSpace=wrap;html=1;dx=15;dy=15;rounded=1;arcSize=8;strokeWidth=2;" vertex="1" parent="1">
          <mxGeometry x="640" y="492" width="41" height="30" as="geometry" />
        </mxCell>
        <mxCell id="olQ-_vG1MbKa7JkdZpwq-44" value="" style="shape=internalStorage;whiteSpace=wrap;html=1;dx=15;dy=15;rounded=1;arcSize=8;strokeWidth=2;" vertex="1" parent="1">
          <mxGeometry x="674" y="571" width="41" height="30" as="geometry" />
        </mxCell>
        <mxCell id="olQ-_vG1MbKa7JkdZpwq-45" value="" style="shape=internalStorage;whiteSpace=wrap;html=1;dx=0;dy=30;rounded=1;arcSize=8;strokeWidth=2;" vertex="1" parent="1">
          <mxGeometry x="646" y="656" width="41" height="30" as="geometry" />
        </mxCell>
        <mxCell id="olQ-_vG1MbKa7JkdZpwq-46" value="&lt;h1&gt;Supply Chain &lt;br&gt;&lt;/h1&gt;&lt;p&gt;&lt;br&gt;&lt;/p&gt;" style="text;html=1;strokeColor=none;fillColor=none;spacing=5;spacingTop=-20;whiteSpace=wrap;overflow=hidden;rounded=0;" vertex="1" parent="1">
          <mxGeometry x="216" y="674" width="190" height="120" as="geometry" />
        </mxCell>
        <mxCell id="olQ-_vG1MbKa7JkdZpwq-47" value="" style="shape=dataStorage;whiteSpace=wrap;html=1;fixedSize=1;" vertex="1" parent="1">
          <mxGeometry x="961" y="378" width="62" height="80" as="geometry" />
        </mxCell>
        <mxCell id="olQ-_vG1MbKa7JkdZpwq-48" value="" style="shape=dataStorage;whiteSpace=wrap;html=1;fixedSize=1;" vertex="1" parent="1">
          <mxGeometry x="968" y="460.5" width="62" height="80" as="geometry" />
        </mxCell>
        <mxCell id="olQ-_vG1MbKa7JkdZpwq-49" value="" style="shape=dataStorage;whiteSpace=wrap;html=1;fixedSize=1;" vertex="1" parent="1">
          <mxGeometry x="972" y="577" width="62" height="80" as="geometry" />
        </mxCell>
        <mxCell id="olQ-_vG1MbKa7JkdZpwq-50" value="" style="shape=dataStorage;whiteSpace=wrap;html=1;fixedSize=1;" vertex="1" parent="1">
          <mxGeometry x="988" y="694" width="62" height="80" as="geometry" />
        </mxCell>
        <mxCell id="olQ-_vG1MbKa7JkdZpwq-51" value="" style="shape=dataStorage;whiteSpace=wrap;html=1;fixedSize=1;" vertex="1" parent="1">
          <mxGeometry x="356" y="487" width="62" height="80" as="geometry" />
        </mxCell>
        <mxCell id="olQ-_vG1MbKa7JkdZpwq-56" style="edgeStyle=orthogonalEdgeStyle;rounded=0;orthogonalLoop=1;jettySize=auto;html=1;" edge="1" parent="1" source="olQ-_vG1MbKa7JkdZpwq-52" target="olQ-_vG1MbKa7JkdZpwq-55">
          <mxGeometry relative="1" as="geometry" />
        </mxCell>
        <mxCell id="olQ-_vG1MbKa7JkdZpwq-52" value="Airbag1" style="shape=process;whiteSpace=wrap;html=1;backgroundOutline=1;" vertex="1" parent="1">
          <mxGeometry x="564" y="431" width="50" height="43" as="geometry" />
        </mxCell>
        <mxCell id="olQ-_vG1MbKa7JkdZpwq-53" value="" style="endArrow=none;dashed=1;html=1;" edge="1" parent="1" source="olQ-_vG1MbKa7JkdZpwq-52">
          <mxGeometry width="50" height="50" relative="1" as="geometry">
            <mxPoint x="726" y="456" as="sourcePoint" />
            <mxPoint x="776" y="406" as="targetPoint" />
            <Array as="points">
              <mxPoint x="674" y="377" />
            </Array>
          </mxGeometry>
        </mxCell>
        <mxCell id="olQ-_vG1MbKa7JkdZpwq-55" value="Airbag1" style="shape=process;whiteSpace=wrap;html=1;backgroundOutline=1;" vertex="1" parent="1">
          <mxGeometry x="661" y="415" width="78" height="43" as="geometry" />
        </mxCell>
      </root>
    </mxGraphModel>
  </diagram>
</mxfile>
